<svg preserveAspectRatio="none" width="100%" height="100%" overflow="visible" style="display: block;" viewBox="0 0 32 32" fill="none" xmlns="http://www.w3.org/2000/svg">
<g id="Coins" clip-path="url(#clip0_0_19)">
<g id="Vector">
</g>
<path id="Vector_2" d="M12 15C17.5228 15 22 12.9853 22 10.5C22 8.01472 17.5228 6 12 6C6.47715 6 2 8.01472 2 10.5C2 12.9853 6.47715 15 12 15Z" stroke="var(--stroke-0, white)" stroke-width="2" stroke-linecap="round" stroke-linejoin="round"/>
<path id="Vector_3" d="M2 10.5V15.5C2 17.985 6.4775 20 12 20C17.5225 20 22 17.985 22 15.5V10.5" stroke="var(--stroke-0, white)" stroke-width="2" stroke-linecap="round" stroke-linejoin="round"/>
<path id="Vector_4" d="M8 14.625V19.625" stroke="var(--stroke-0, white)" stroke-width="2" stroke-linecap="round" stroke-linejoin="round"/>
<path id="Vector_5" d="M22.0002 12.0938C26.5652 12.5112 30.0002 14.3262 30.0002 16.5037C30.0002 18.9887 25.5227 21.0037 20.0002 21.0037C17.5502 21.0037 15.3052 20.6075 13.5664 19.9487" stroke="var(--stroke-0, white)" stroke-width="2" stroke-linecap="round" stroke-linejoin="round"/>
<path id="Vector_6" d="M10 19.91V21.5C10 23.985 14.4775 26 20 26C25.5225 26 30 23.985 30 21.5V16.5" stroke="var(--stroke-0, white)" stroke-width="2" stroke-linecap="round" stroke-linejoin="round"/>
<path id="Vector_7" d="M24 20.625V25.625" stroke="var(--stroke-0, white)" stroke-width="2" stroke-linecap="round" stroke-linejoin="round"/>
<path id="Vector_8" d="M16 14.625V25.625" stroke="var(--stroke-0, white)" stroke-width="2" stroke-linecap="round" stroke-linejoin="round"/>
</g>
<defs>
<clipPath id="clip0_0_19">
<rect width="32" height="32" fill="white"/>
</clipPath>
</defs>
</svg>
