<svg width="32" height="32" viewBox="0 0 32 32" fill="none" xmlns="http://www.w3.org/2000/svg">
  <rect width="32" height="32" rx="7" fill="#FF8D7D"/>
  <g transform="translate(3.5, 9.5) scale(0.45)">
    <path d="M54.9955 3.62176C54.9955 3.57629 54.9567 3.54112 54.9117 3.5436C54.8701 3.54589 54.8359 3.57972 54.8359 3.62172V3.69639C54.8359 3.86192 54.7028 3.99611 54.5387 3.99611C54.3746 3.99611 54.2416 3.86192 54.2416 3.69639C54.2416 3.43718 54.0976 3.20464 53.9176 3.01974C53.59 2.68347 53.3913 2.20566 53.4897 1.77848C53.6646 1.01921 54.0786 0.691269 54.8357 0.691269C55.5929 0.691269 56.2066 1.3104 56.2066 2.07414C56.2066 2.31507 56.1455 2.54161 56.0382 2.73886C55.779 3.21487 55.4005 3.33535 55.4005 3.87842V4.34541C55.4005 4.45823 55.3098 4.54967 55.198 4.54967C55.0862 4.54967 54.9955 4.45822 54.9955 4.34541V3.62176Z" fill="white"/>
    <path d="M30.2553 5.85851C34.3604 6.56732 38.8731 6.13503 42.861 7.12546C47.4698 8.51041 50.069 12.2977 42.5541 13.1848C38.5744 13.4965 34.5481 12.837 30.6193 13.5382C26.4583 14.3955 22.186 15.8395 17.6687 15.1398C13.5307 14.4963 9.97488 11.9493 10.084 9.24119C10.061 6.58088 13.9386 5.06102 17.6938 4.57506C22.0088 4.12847 26.2069 5.05897 30.2553 5.85851ZM30.4958 5.37247C8.71736 0.280549 7.33912 8.12486 7.31527 9.21173C7.13719 12.4541 11.4051 15.8393 16.4747 16.5569C21.7405 17.3023 26.2669 15.2042 30.9126 14.0662C35.4449 13.271 39.8246 14.2985 44.3599 13.9086C51.9147 13.2593 50.2248 7.68193 44.88 6.41139C40.3442 5.33318 35.1653 6.17819 30.4958 5.37247Z" fill="white"/>
    <path d="M29.8173 7.11953C32.9452 7.52616 41.2664 8.07537 41.0172 10.4516C40.6992 11.8391 34.2065 11.6726 30.0101 12.1258C26.3485 12.492 17.343 13.1152 17.4569 9.35369C17.427 5.90205 26.6002 6.76497 29.8173 7.11953ZM29.9465 6.65573C26.7481 6.19731 23.2855 5.70477 20.0057 6.13599C17.492 6.46651 14.6929 7.51067 14.7525 9.30834C14.6439 11.1827 17.3336 12.6527 20.0238 13.1375C23.3796 13.7422 26.91 13.1053 30.2043 12.6484C34.7943 12.0889 43.0489 12.6421 43.3783 10.6844C43.6972 7.62372 33.8396 7.18881 29.9465 6.65573Z" fill="white"/>
    <path d="M29.7873 8.48992C31.3811 8.57752 35.1894 8.97897 34.8233 9.89961C34.3791 10.7855 30.9759 10.7855 29.8346 10.821C28.4206 10.8321 24.6711 10.8729 24.5315 9.57049C24.5542 8.27156 28.5352 8.4503 29.7873 8.48992ZM29.8372 7.99879C27.9063 7.87779 21.9959 7.50801 21.975 9.52942C21.8197 11.4381 27.9778 11.3377 29.9318 11.3569C31.381 11.3377 36.5542 11.2943 37.2249 10.1301C37.7013 8.77824 31.7862 8.17607 29.8372 7.99879Z" fill="white"/>
    <path fill-rule="evenodd" clip-rule="evenodd" d="M27.939 2.74595C29.0679 3.16028 30.2054 3.57774 31.3796 3.96345C33.7514 4.90607 37.1638 4.51963 40.7323 4.11548C43.9907 3.74645 47.3793 3.36267 50.2248 3.96262C53.27 4.60479 54.9172 7.45913 54.832 10.2352L54.835 10.2312V16.3987C54.8533 19.2797 53.0194 22.1501 48.9598 22.4573C46.5196 22.642 44.1396 22.278 41.7765 21.9165C38.4788 21.4121 35.2142 20.9129 31.8658 21.9168C30.1171 22.5498 28.4907 23.3921 26.8615 24.2358C23.1351 26.1656 19.3929 28.1034 14.1354 27.5666C5.77028 26.7123 -0.0595646 22.0646 -0.000156595 15.6056C0.0023536 15.4843 0.0103862 15.3638 0.0214311 15.2436V9.97229C0.0045291 9.71583 -0.0023321 9.45662 1.07513e-05 9.19401C0.0995818 4.42664 6.93856 0.47589 14.3635 0.0420337C19.7195 -0.270893 23.7709 1.21611 27.939 2.74595ZM39.6697 4.82318C36.402 5.02436 33.2185 5.22037 31.0003 4.52068C30.2857 4.2961 29.5551 4.05792 28.8219 3.81893C27.0216 3.23199 25.2062 2.64017 23.5764 2.2329C13.1389 -0.370194 3.24218 3.5282 2.74717 9.1882C2.37148 12.9431 7.71935 18.4633 14.8646 19.2923C18.1035 19.5792 20.8813 19.0369 23.703 18.0702C24.8419 17.6434 25.9387 17.1765 27.035 16.7097C28.4834 16.0931 29.9311 15.4767 31.4752 14.9533C34.7851 14.152 37.9997 14.5201 41.11 14.8762C43.2144 15.1171 45.2709 15.3526 47.2767 15.2167C49.207 14.9947 50.7738 14.5113 51.7432 13.3954C53.7107 10.7332 53.5138 6.25056 48.2503 4.95559C45.7826 4.44685 42.6902 4.63722 39.6697 4.82318Z" fill="white" opacity="0.9"/>
  </g>
</svg>
